<svg width="25" height="24" viewBox="0 0 25 24" fill="none" xmlns="http://www.w3.org/2000/svg">
<g clip-path="url(#clip0_712_33)">
<path d="M9.06296 11H7.04897V13H9.06296V11ZM13.0909 11H11.0769V13H13.0909V11ZM17.1189 11H15.1049V13H17.1189V11ZM19.1329 4H18.1259V2H16.1119V4H8.05596V2H6.04198V4H5.03498C3.91722 4 3.03107 4.9 3.03107 6L3.021 20C3.021 21.1 3.91722 22 5.03498 22H19.1329C20.2406 22 21.1469 21.1 21.1469 20V6C21.1469 4.9 20.2406 4 19.1329 4ZM19.1329 20H5.03498V9H19.1329V20Z" fill="#F1BC00"/>
</g>
<defs>
<clipPath id="clip0_712_33">
<rect width="24.1678" height="24" fill="white"/>
</clipPath>
</defs>
</svg>
